{"title":"Splice.2010.CAM.H264.FEEL-FREE","uid":5628877,"size":999317597,"categoryP":"video","categoryS":"movies","magnet":"?xt=urn:btih:aa3171170fc9caa4e65fd1e939f52a394e407791&amp;dn=Splice.2010.CAM.H264.FEEL-FREE&amp;tr=udp%3A%2F%2Ftracker.openbittorrent.com%3A80&amp;tr=udp%3A%2F%2Fopen.demonii.com%3A1337&amp;tr=udp%3A%2F%2Ftracker.coppersurfer.tk%3A6969&amp;tr=udp%3A%2F%2Fexodus.desync.com%3A6969","seeders":0,"leechers":0,"uploader":"hiest","files":8,"time":1276587510,"description":"Genre:Horror, Sci-Fi, Thriller \nLanguage:English\nIMDb:http://www.imdb.com/title/tt1017460/ \nEncoder: Tony2\n.............................................\nGeneral\nComplete name : Splice CAM XViD FEEL-FREE.avi\nFormat : AVI\nFormat/Info : Audio Video Interleave\nFile size : 952 MiB\nDuration : 1h 39mn\nOverall bit rate : 1 334 Kbps\nWriting application : Lavf51.12.1\n..............................................\nVideo\nID : 0\nFormat : AVC\nFormat/Info : Advanced Video Codec\nFormat profile : &lt;a class=&quot;__cf_email__&quot; href=&quot;/cdn-cgi/l/email-protection&quot; data-cfemail=&quot;02406371676e6b6c67424e372c33&quot;&gt;[email&amp;#160;protected]&lt;/a&gt;&lt;script cf-hash='f9e31' type=&quot;text/javascript&quot;&gt;\n/* &lt;![CDATA[ */!function(){try{var t=&quot;currentScript&quot;in document?document.currentScript:function(){for(var t=document.getElementsByTagName(&quot;script&quot;),e=t.length;e--;)if(t[e].getAttribute(&quot;cf-hash&quot;))return t[e]}();if(t&amp;&amp;t.previousSibling){var e,r,n,i,c=t.previousSibling,a=c.getAttribute(&quot;data-cfemail&quot;);if(a){for(e=&quot;&quot;,r=parseInt(a.substr(0,2),16),n=2;a.length-n;n+=2)i=parseInt(a.substr(n,2),16)^r,e+=String.fromCharCode(i);e=document.createTextNode(e),c.parentNode.replaceChild(e,c)}}}catch(u){}}();/* ]]&gt; */&lt;/script&gt;\nFormat settings, CABAC : No\nFormat settings, ReFrames : 1 frame\nCodec ID : H264\nDuration : 1h 39mn\nBit rate : 1 194 Kbps\nNominal bit rate : 1 200 Kbps\nWidth : 704 pixels\nHeight : 304 pixels\nDisplay aspect ratio : 2.35:1\nFrame rate : 23.976 fps\nResolution : 24 bits\nColorimetry : 4:2:0\nScan type : Progressive\nBits/(Pixel*Frame) : 0.233\nStream size : 852 MiB (89%)\nWriting library : x264 core 55\n..............................................\nAudio\nID : 1\nFormat : MPEG Audio\nFormat version : Version 1\nFormat profile : Layer 3\nFormat settings, Mode : Joint stereo / MS Stereo\nCodec ID : 55\nCodec ID/Hint : MP3\nDuration : 1h 39mn\nBit rate mode : Constant\nBit rate : 128 Kbps\nChannel(s) : 2 channels\nSampling rate : 44.1 KHz\nResolution : 16 bits\nStream size : 91.4 MiB (10%)\nAlignment : Aligned on interleaves\nInterleave, duration : 26 ms (0.63 video frame)\nInterleave, preload duration : 26 ms\n..................................................\nPlot: \nElsa and Clive, two young rebellious scientists, defy legal and ethical boundaries and forge ahead with.\n...................................................\nScreenshots:\n &lt;a href=&quot;\nhttp://postimg.com/image/17000/16295.jpg&quot; rel=&quot;nofollow&quot; target=&quot;_NEW&quot;&gt;\nhttp://postimg.com/image/17000/16295.jpg&lt;/a&gt; &lt;a href=&quot;\nhttp://postimg.com/image/17000/16296.jpg&quot; rel=&quot;nofollow&quot; target=&quot;_NEW&quot;&gt;\nhttp://postimg.com/image/17000/16296.jpg&lt;/a&gt;\n\n....................................................\n....................................................","torrent":{"xt":"urn:btih:aa3171170fc9caa4e65fd1e939f52a394e407791","amp;dn":"Splice.2010.CAM.H264.FEEL-FREE","amp;tr":["udp%3A%2F%2Ftracker.openbittorrent.com%3A80","udp%3A%2F%2Fopen.demonii.com%3A1337","udp%3A%2F%2Ftracker.coppersurfer.tk%3A6969","udp%3A%2F%2Fexodus.desync.com%3A6969"],"infoHash":"aa3171170fc9caa4e65fd1e939f52a394e407791","infoHashBuffer":{"type":"Buffer","data":[170,49,113,23,15,201,202,164,230,95,209,233,57,245,42,57,78,64,119,145]},"announce":[],"urlList":[]}}